<?xml version="1.0" encoding="UTF-8" standalone="no"?>
<svg width="19px" height="19px" viewBox="0 0 19 19" version="1.1" xmlns="http://www.w3.org/2000/svg" xmlns:xlink="http://www.w3.org/1999/xlink">
    <!-- Generator: Sketch 41 (35326) - http://www.bohemiancoding.com/sketch -->
    <title></title>
    <desc>Created with Sketch.</desc>
    <defs></defs>
    <g id="Symbols" stroke="none" stroke-width="1" fill="none" fill-rule="evenodd">
        <g id="LOGO-/-Contractors-/-purple" transform="translate(-10.000000, -13.000000)" fill="#FFFFFF">
            <path d="M14.0513441,28.0000179 C14.0513441,28.3906433 13.727683,28.7143044 13.3370575,28.7143044 C12.9464321,28.7143044 12.622771,28.3906433 12.622771,28.0000179 C12.622771,27.6093924 12.9464321,27.2857313 13.3370575,27.2857313 C13.727683,27.2857313 14.0513441,27.6093924 14.0513441,28.0000179 Z M21.2388527,23.3125123 C19.7767974,22.7321545 18.604921,21.5602781 18.0245631,20.0982227 L10.4241076,27.6986782 C10.1562502,27.9665357 10,28.3348397 10,28.7143044 C10,29.0937692 10.1562502,29.4620732 10.4241076,29.7187699 L11.6071448,30.9241285 C11.8750022,31.1808252 12.2433062,31.3370754 12.622771,31.3370754 C13.0022357,31.3370754 13.3705397,31.1808252 13.6272365,30.9241285 L21.2388527,23.3125123 Z M28.314754,18.4575958 C28.314754,18.2343812 28.1808252,18.0669703 27.9576107,18.0669703 C27.7343961,18.0669703 25.1451073,19.6964366 24.7768033,19.9084904 L22.6227829,18.7142925 L22.6227829,16.2142895 L25.8928761,14.3281266 C25.9933226,14.2611622 26.0714477,14.1383942 26.0714477,14.0156262 C26.0714477,13.8816975 26.0044834,13.7812509 25.8928761,13.7031258 C25.2120717,13.245536 24.1518026,13 23.3370695,13 C20.5803698,13 18.3370635,15.2433062 18.3370635,18.000006 C18.3370635,20.7567057 20.5803698,23.0000119 23.3370695,23.0000119 C25.446447,23.0000119 27.3549314,21.6272424 28.0580572,19.6406329 C28.1808252,19.2834896 28.314754,18.8258998 28.314754,18.4575958 Z" id=""></path>
        </g>
    </g>
</svg>