<svg id="SvgjsSvg1041" xmlns="http://www.w3.org/2000/svg" version="1.1" xmlns:xlink="http://www.w3.org/1999/xlink" xmlns:svgjs="http://svgjs.com/svgjs" width="61" height="61" viewBox="0 0 61 61"><title>Layer 8</title><desc>Created with Avocode.</desc><defs id="SvgjsDefs1042"></defs><path id="SvgjsPath1043" d="M552.065 452.071C568.6350000000001 452.071 582.0680000000001 438.637 582.0680000000001 422.06600000000003C582.0680000000001 405.495 568.6350000000001 392.06100000000004 552.065 392.06100000000004C535.494 392.06100000000004 522.061 405.49500000000006 522.061 422.06600000000003C522.061 438.63700000000006 535.494 452.071 552.065 452.071Z " fill="#dfceff" fill-opacity="1" transform="matrix(1,0,0,1,-522,-392)"></path><path id="SvgjsPath1044" d="M552.065 392.061C535.5210000000001 392.061 522.061 405.52099999999996 522.061 422.066C522.061 438.60999999999996 535.5210000000001 452.07099999999997 552.065 452.07099999999997C568.609 452.07099999999997 582.0680000000001 438.60999999999996 582.0680000000001 422.066C582.0680000000001 405.52099999999996 568.6090000000002 392.061 552.065 392.061ZM552.065 450.07C536.624 450.07 524.061 437.507 524.061 422.066C524.061 406.625 536.624 394.06199999999995 552.065 394.06199999999995C567.5050000000001 394.06199999999995 580.0680000000001 406.62499999999994 580.0680000000001 422.066C580.0680000000001 437.50699999999995 567.5050000000001 450.07 552.065 450.07ZM554.065 411.064V433.06800000000004C554.065 433.62100000000004 553.6170000000001 434.06800000000004 553.065 434.06800000000004C552.513 434.06800000000004 552.065 433.62100000000004 552.065 433.06800000000004V413.47900000000004L547.7710000000001 417.77200000000005C547.3800000000001 418.16300000000007 546.748 418.16300000000007 546.3570000000001 417.77200000000005C545.9660000000001 417.38100000000003 545.9660000000001 416.749 546.3570000000001 416.35800000000006L552.3580000000001 410.3570000000001C552.644 410.0700000000001 553.0730000000001 409.98300000000006 553.4480000000001 410.1400000000001C553.8210000000001 410.2940000000001 554.065 410.6600000000001 554.065 411.0640000000001Z " fill="#7f64b5" fill-opacity="1" transform="matrix(1,0,0,1,-522,-392)"></path></svg>