<svg id="SvgjsSvg1077" xmlns="http://www.w3.org/2000/svg" version="1.1" xmlns:xlink="http://www.w3.org/1999/xlink" xmlns:svgjs="http://svgjs.com/svgjs" width="61" height="61" viewBox="0 0 61 61"><title>Layer 17</title><desc>Created with Avocode.</desc><defs id="SvgjsDefs1078"></defs><path id="SvgjsPath1079" d="M684.08 565.088C700.6510000000001 565.088 714.0840000000001 551.655 714.0840000000001 535.084C714.0840000000001 518.5129999999999 700.6510000000001 505.07899999999995 684.08 505.07899999999995C667.51 505.07899999999995 654.077 518.5129999999999 654.077 535.084C654.077 551.655 667.51 565.088 684.08 565.088Z " fill="#dfceff" fill-opacity="1" transform="matrix(1,0,0,1,-654,-505)"></path><path id="SvgjsPath1080" d="M684.08 505.079C667.5360000000001 505.079 654.077 518.539 654.077 535.0840000000001C654.077 551.628 667.536 565.0880000000001 684.08 565.0880000000001C700.624 565.0880000000001 714.0840000000001 551.628 714.0840000000001 535.0840000000001C714.0840000000001 518.5390000000001 700.624 505.07900000000006 684.08 505.07900000000006ZM684.08 563.088C668.639 563.088 656.077 550.525 656.077 535.084C656.077 519.6419999999999 668.639 507.07899999999995 684.08 507.07899999999995C699.5210000000001 507.07899999999995 712.0830000000001 519.6419999999999 712.0830000000001 535.084C712.0830000000001 550.525 699.5210000000001 563.088 684.08 563.088ZM684.08 533.083C687.4000000000001 533.093 690.081 535.781 690.081 539.084V541.0849999999999C690.081 544.3939999999999 687.39 547.0849999999999 684.08 547.0849999999999C680.7710000000001 547.0849999999999 678.0790000000001 544.3939999999999 678.0790000000001 541.0849999999999C678.0790000000001 540.531 678.5260000000001 540.084 679.0790000000001 540.084C679.633 540.084 680.08 540.531 680.08 541.0849999999999C680.08 543.2909999999999 681.874 545.0849999999999 684.08 545.0849999999999C686.2860000000001 545.0849999999999 688.081 543.2909999999999 688.081 541.0849999999999V539.084C688.081 536.9159999999999 686.248 535.084 684.08 535.084H679.0790000000001C678.5260000000001 535.084 678.0790000000001 534.637 678.0790000000001 534.083V524.082C678.0790000000001 523.529 678.5260000000001 523.082 679.0790000000001 523.082H689.081C689.634 523.082 690.081 523.529 690.081 524.082C690.081 524.627 689.6460000000001 525.069 689.081 525.082H680.08V533.083Z " fill="#7f64b5" fill-opacity="1" transform="matrix(1,0,0,1,-654,-505)"></path></svg>