<svg id="SvgjsSvg1035" xmlns="http://www.w3.org/2000/svg" version="1.1" xmlns:xlink="http://www.w3.org/1999/xlink" xmlns:svgjs="http://svgjs.com/svgjs" width="61" height="61" viewBox="0 0 61 61"><title>Layer 8</title><desc>Created with Avocode.</desc><defs id="SvgjsDefs1036"></defs><path id="SvgjsPath1037" d="M684.08 732.114C667.5360000000001 732.114 654.077 745.5740000000001 654.077 762.119C654.077 778.664 667.536 792.124 684.08 792.124C700.624 792.124 714.0840000000001 778.664 714.0840000000001 762.119C714.0840000000001 745.5740000000001 700.624 732.114 684.08 732.114ZM684.08 790.123C668.639 790.123 656.077 777.5600000000001 656.077 762.119C656.077 746.678 668.639 734.115 684.08 734.115C699.5210000000001 734.115 712.0830000000001 746.678 712.0830000000001 762.119C712.0830000000001 777.5600000000001 699.5210000000001 790.123 684.08 790.123ZM690.081 756.118V768.12C690.081 771.43 687.39 774.121 684.08 774.121C682.47 774.121 680.956 773.491 679.8190000000001 772.347C679.4300000000001 771.9549999999999 679.4320000000001 771.3199999999999 679.8230000000001 770.932C680.2150000000001 770.541 680.8480000000001 770.544 681.2370000000001 770.9350000000001C681.9960000000001 771.7 683.0060000000001 772.1210000000001 684.08 772.1210000000001C686.2860000000001 772.1210000000001 688.081 770.3260000000001 688.081 768.1200000000001V756.1180000000002C688.081 753.9120000000001 686.2860000000001 752.1170000000002 684.08 752.1170000000002C681.874 752.1170000000002 680.08 753.9120000000001 680.08 756.1180000000002V768.1200000000001C680.08 768.6730000000001 679.633 769.1200000000001 679.0790000000001 769.1200000000001C678.5260000000001 769.1200000000001 678.0790000000001 768.6730000000001 678.0790000000001 768.1200000000001V756.1180000000002C678.0790000000001 752.8090000000002 680.7710000000001 750.1170000000002 684.08 750.1170000000002C687.39 750.1170000000002 690.081 752.8090000000002 690.081 756.1180000000002Z " fill="#7f64b5" fill-opacity="1" transform="matrix(1,0,0,1,-654,-732)"></path></svg>