<svg id="SvgjsSvg1023" xmlns="http://www.w3.org/2000/svg" version="1.1" xmlns:xlink="http://www.w3.org/1999/xlink" xmlns:svgjs="http://svgjs.com/svgjs" width="61" height="61" viewBox="0 0 61 61"><title>Layer 13</title><desc>Created with Avocode.</desc><defs id="SvgjsDefs1024"></defs><path id="SvgjsPath1025" d="M552.065 619.097C535.5210000000001 619.097 522.061 632.557 522.061 649.101C522.061 665.646 535.5210000000001 679.106 552.065 679.106C568.609 679.106 582.0680000000001 665.646 582.0680000000001 649.101C582.0680000000001 632.557 568.6090000000002 619.097 552.065 619.097ZM552.065 677.106C536.624 677.106 524.061 664.544 524.061 649.101C524.061 633.66 536.624 621.097 552.065 621.097C567.5060000000001 621.097 580.0680000000001 633.66 580.0680000000001 649.101C580.0680000000001 664.544 567.5060000000001 677.106 552.065 677.106ZM557.884 637.527C558.071 637.7940000000001 558.116 638.135 558.005 638.442L550.004 660.445C549.856 660.851 549.4730000000001 661.1030000000001 549.064 661.1030000000001C548.9499999999999 661.1030000000001 548.8349999999999 661.0840000000001 548.722 661.0430000000001C548.203 660.8540000000002 547.936 660.2810000000002 548.124 659.7610000000001L555.6370000000001 639.1000000000001H547.0640000000001C546.5120000000001 639.1000000000001 546.0640000000001 638.6530000000001 546.0640000000001 638.1000000000001C546.0640000000001 637.5480000000001 546.5120000000001 637.0990000000002 547.0640000000001 637.0990000000002H557.065C557.3910000000001 637.0990000000002 557.697 637.2590000000001 557.884 637.5270000000002Z " fill="#7f64b5" fill-opacity="1" transform="matrix(1,0,0,1,-522,-619)"></path></svg>