<svg id="SvgjsSvg1029" xmlns="http://www.w3.org/2000/svg" version="1.1" xmlns:xlink="http://www.w3.org/1999/xlink" xmlns:svgjs="http://svgjs.com/svgjs" width="61" height="61" viewBox="0 0 61 61"><title>Layer 11</title><desc>Created with Avocode.</desc><defs id="SvgjsDefs1030"></defs><path id="SvgjsPath1031" d="M815.095 619.097C798.552 619.097 785.092 632.557 785.092 649.101C785.092 665.646 798.552 679.106 815.095 679.106C831.639 679.106 845.099 665.646 845.099 649.101C845.099 632.557 831.639 619.097 815.095 619.097ZM815.095 677.106C799.655 677.106 787.092 664.543 787.092 649.101C787.092 633.66 799.655 621.097 815.095 621.097C830.5360000000001 621.097 843.099 633.66 843.099 649.101C843.099 664.543 830.5360000000001 677.106 815.095 677.106ZM822.096 644.101C822.096 645.751 821.704 647.306 820.963 648.598L813.959 660.607C813.7729999999999 660.925 813.438 661.103 813.0939999999999 661.103C812.9229999999999 661.103 812.7489999999999 661.059 812.5909999999999 660.967C812.1149999999999 660.689 811.9529999999999 660.077 812.2309999999999 659.5989999999999L819.2319999999999 647.597C819.7959999999998 646.614 820.0959999999999 645.403 820.0959999999999 644.101C820.0959999999999 641.343 817.8529999999998 639.1 815.0949999999999 639.1C812.338 639.1 810.0949999999999 641.3430000000001 810.0949999999999 644.101C810.0949999999999 646.553 811.8469999999999 648.627 814.2599999999999 649.032C814.8049999999998 649.123 815.1719999999999 649.638 815.0809999999999 650.1840000000001C814.9899999999999 650.729 814.4719999999999 651.099 813.93 651.0050000000001C810.549 650.4390000000001 808.0949999999999 647.5350000000001 808.0949999999999 644.1010000000001C808.0949999999999 640.2410000000001 811.2359999999999 637.0990000000002 815.0949999999999 637.0990000000002C818.9549999999999 637.0990000000002 822.0959999999999 640.2410000000002 822.0959999999999 644.1010000000001Z " fill="#7f64b5" fill-opacity="1" transform="matrix(1,0,0,1,-785,-619)"></path></svg>