<svg id="SvgjsSvg1057" xmlns="http://www.w3.org/2000/svg" version="1.1" xmlns:xlink="http://www.w3.org/1999/xlink" xmlns:svgjs="http://svgjs.com/svgjs" width="61" height="61" viewBox="0 0 61 61"><title>Layer 10</title><desc>Created with Avocode.</desc><defs id="SvgjsDefs1058"></defs><path id="SvgjsPath1059" d="M552.065 680.106C568.6350000000001 680.106 582.0680000000001 666.673 582.0680000000001 650.102C582.0680000000001 633.53 568.6350000000001 620.097 552.065 620.097C535.494 620.097 522.061 633.53 522.061 650.102C522.061 666.673 535.494 680.106 552.065 680.106Z " fill="#dfceff" fill-opacity="1" transform="matrix(1,0,0,1,-522,-620)"></path><path id="SvgjsPath1060" d="M552.065 620.097C535.5210000000001 620.097 522.061 633.557 522.061 650.102C522.061 666.646 535.5210000000001 680.106 552.065 680.106C568.609 680.106 582.0680000000001 666.646 582.0680000000001 650.102C582.0680000000001 633.557 568.6090000000002 620.097 552.065 620.097ZM552.065 678.106C536.624 678.106 524.061 665.544 524.061 650.102C524.061 634.66 536.624 622.097 552.065 622.097C567.5060000000001 622.097 580.0680000000001 634.66 580.0680000000001 650.102C580.0680000000001 665.544 567.5060000000001 678.106 552.065 678.106ZM557.884 638.527C558.071 638.7940000000001 558.116 639.135 558.005 639.442L550.004 661.445C549.856 661.851 549.4730000000001 662.1030000000001 549.064 662.1030000000001C548.9499999999999 662.1030000000001 548.8349999999999 662.0840000000001 548.722 662.0430000000001C548.203 661.8540000000002 547.936 661.2810000000002 548.124 660.7610000000001L555.6370000000001 640.1000000000001H547.0640000000001C546.5120000000001 640.1000000000001 546.0640000000001 639.6530000000001 546.0640000000001 639.1000000000001C546.0640000000001 638.5480000000001 546.5120000000001 638.1000000000001 547.0640000000001 638.1000000000001H557.065C557.3910000000001 638.1000000000001 557.697 638.2590000000001 557.884 638.5270000000002Z " fill="#7f64b5" fill-opacity="1" transform="matrix(1,0,0,1,-522,-620)"></path></svg>