<svg id="SvgjsSvg1081" xmlns="http://www.w3.org/2000/svg" version="1.1" xmlns:xlink="http://www.w3.org/1999/xlink" xmlns:svgjs="http://svgjs.com/svgjs" width="61" height="61" viewBox="0 0 61 61"><title>Layer 15</title><desc>Created with Avocode.</desc><defs id="SvgjsDefs1082"></defs><path id="SvgjsPath1083" d="M815.095 792.124C831.666 792.124 845.099 778.69 845.099 762.119C845.099 745.548 831.666 732.114 815.095 732.114C798.525 732.114 785.092 745.548 785.092 762.119C785.092 778.69 798.525 792.124 815.095 792.124Z " fill="#dfceff" fill-opacity="1" transform="matrix(1,0,0,1,-785,-732)"></path><path id="SvgjsPath1084" d="M815.095 732.114C798.552 732.114 785.092 745.5740000000001 785.092 762.119C785.092 778.664 798.552 792.124 815.095 792.124C831.639 792.124 845.099 778.664 845.099 762.119C845.099 745.5740000000001 831.639 732.114 815.095 732.114ZM815.095 790.123C799.655 790.123 787.092 777.5600000000001 787.092 762.119C787.092 746.678 799.655 734.115 815.095 734.115C830.5360000000001 734.115 843.099 746.678 843.099 762.119C843.099 777.5600000000001 830.5360000000001 790.123 815.095 790.123ZM825.097 762.119C825.097 762.4590000000001 824.924 762.7760000000001 824.638 762.96L814.626 769.3960000000001C814.16 769.6940000000001 813.543 769.5600000000001 813.244 769.0970000000001C812.946 768.6320000000001 813.08 768.0140000000001 813.544 767.7150000000001L822.247 762.1190000000001L811.0949999999999 754.9500000000002V771.1200000000001C811.0949999999999 771.6740000000001 810.6469999999999 772.1210000000001 810.0949999999999 772.1210000000001C809.5429999999999 772.1210000000001 809.0949999999999 771.6740000000001 809.0949999999999 771.1200000000001V753.1180000000002C809.0949999999999 752.7520000000002 809.295 752.4160000000002 809.6159999999999 752.2400000000001C809.9359999999999 752.0640000000001 810.3269999999999 752.0760000000001 810.6359999999999 752.2760000000001L824.6379999999998 761.278C824.9239999999998 761.462 825.0969999999998 761.779 825.0969999999998 762.119Z " fill="#7f64b5" fill-opacity="1" transform="matrix(1,0,0,1,-785,-732)"></path></svg>