<svg id="SvgjsSvg1045" xmlns="http://www.w3.org/2000/svg" version="1.1" xmlns:xlink="http://www.w3.org/1999/xlink" xmlns:svgjs="http://svgjs.com/svgjs" width="61" height="61" viewBox="0 0 61 61"><title>Layer 16</title><desc>Created with Avocode.</desc><defs id="SvgjsDefs1046"></defs><path id="SvgjsPath1047" d="M684.08 452.071C700.6510000000001 452.071 714.0840000000001 438.637 714.0840000000001 422.06600000000003C714.0840000000001 405.495 700.6510000000001 392.06100000000004 684.08 392.06100000000004C667.51 392.06100000000004 654.077 405.49500000000006 654.077 422.06600000000003C654.077 438.63700000000006 667.51 452.071 684.08 452.071Z " fill="#dfceff" fill-opacity="1" transform="matrix(1,0,0,1,-654,-392)"></path><path id="SvgjsPath1048" d="M684.08 392.061C667.5360000000001 392.061 654.077 405.52099999999996 654.077 422.066C654.077 438.60999999999996 667.536 452.07099999999997 684.08 452.07099999999997C700.624 452.07099999999997 714.0840000000001 438.60999999999996 714.0840000000001 422.066C714.0840000000001 405.52099999999996 700.624 392.061 684.08 392.061ZM684.08 450.07C668.639 450.07 656.077 437.507 656.077 422.066C656.077 406.625 668.639 394.06199999999995 684.08 394.06199999999995C699.5210000000001 394.06199999999995 712.0830000000001 406.62499999999994 712.0830000000001 422.066C712.0830000000001 437.50699999999995 699.5210000000001 450.07 684.08 450.07ZM689.081 434.068H679.0790000000001C678.527 434.068 678.0790000000001 433.621 678.0790000000001 433.068C678.0790000000001 430.917 679.0540000000001 429.70599999999996 679.3190000000001 429.416L686.2900000000001 420.452C686.316 420.419 686.344 420.388 686.373 420.359C686.3870000000001 420.344 688.081 418.591 688.081 416.065C688.081 413.859 686.2860000000001 412.064 684.08 412.064C681.874 412.064 680.08 413.85900000000004 680.08 416.065C680.08 416.618 679.6320000000001 417.065 679.0790000000001 417.065C678.527 417.065 678.0790000000001 416.618 678.0790000000001 416.065C678.0790000000001 412.755 680.7710000000001 410.064 684.08 410.064C687.39 410.064 690.081 412.755 690.081 416.065C690.081 419.201 688.183 421.356 687.838 421.721L680.87 430.681C680.844 430.71299999999997 680.816 430.745 680.787 430.774C680.773 430.789 680.39 431.209 680.1890000000001 432.068H689.0810000000001C689.6450000000001 432.08 690.0810000000001 432.522 690.0810000000001 433.068C690.0810000000001 433.613 689.6450000000001 434.055 689.0810000000001 434.068Z " fill="#7f64b5" fill-opacity="1" transform="matrix(1,0,0,1,-654,-392)"></path></svg>