<svg id="SvgjsSvg1014" xmlns="http://www.w3.org/2000/svg" version="1.1" xmlns:xlink="http://www.w3.org/1999/xlink" xmlns:svgjs="http://svgjs.com/svgjs" width="61" height="61" viewBox="0 0 61 61"><title>Layer 16</title><desc>Created with Avocode.</desc><defs id="SvgjsDefs1015"></defs><path id="SvgjsPath1016" d="M552.065 505.079C535.5210000000001 505.079 522.061 518.539 522.061 535.0840000000001C522.061 551.628 535.5210000000001 565.0880000000001 552.065 565.0880000000001C568.609 565.0880000000001 582.0680000000001 551.628 582.0680000000001 535.0840000000001C582.0680000000001 518.5390000000001 568.6090000000002 505.07900000000006 552.065 505.07900000000006ZM552.065 563.088C536.624 563.088 524.061 550.525 524.061 535.084C524.061 519.6419999999999 536.624 507.07899999999995 552.065 507.07899999999995C567.5050000000001 507.07899999999995 580.0680000000001 519.6419999999999 580.0680000000001 535.084C580.0680000000001 550.525 567.5050000000001 563.088 552.065 563.088ZM551.065 541.085H545.0640000000001C544.701 541.085 544.3660000000001 540.888 544.1890000000001 540.568C544.013 540.251 544.023 539.862 544.2160000000001 539.554L554.2170000000001 523.552C554.4530000000001 523.173 554.916 522.996 555.3400000000001 523.121C555.7690000000001 523.244 556.0650000000002 523.636 556.0650000000002 524.082V539.084H557.0650000000002C557.6310000000002 539.097 558.0650000000002 539.539 558.0650000000002 540.084C558.0650000000002 540.63 557.6310000000002 541.072 557.0650000000002 541.0849999999999H556.0650000000002V546.0849999999999C556.0650000000002 546.6379999999999 555.6180000000002 547.0849999999999 555.0650000000002 547.0849999999999C554.5120000000002 547.0849999999999 554.0650000000002 546.6379999999999 554.0650000000002 546.0849999999999V527.5679999999999L546.8690000000001 539.0839999999998H551.0650000000002C551.6300000000002 539.0969999999999 552.0650000000002 539.5389999999999 552.0650000000002 540.0839999999998C552.0650000000002 540.6299999999999 551.6300000000002 541.0719999999999 551.0650000000002 541.0849999999998Z " fill="#7f64b5" fill-opacity="1" transform="matrix(1,0,0,1,-522,-505)"></path></svg>