<svg id="SvgjsSvg1011" xmlns="http://www.w3.org/2000/svg" version="1.1" xmlns:xlink="http://www.w3.org/1999/xlink" xmlns:svgjs="http://svgjs.com/svgjs" width="61" height="61" viewBox="0 0 61 61"><title>Layer 5</title><desc>Created with Avocode.</desc><defs id="SvgjsDefs1012"></defs><path id="SvgjsPath1013" d="M815.095 392.061C798.552 392.061 785.092 405.52099999999996 785.092 422.066C785.092 438.60999999999996 798.552 452.07099999999997 815.095 452.07099999999997C831.639 452.07099999999997 845.099 438.60999999999996 845.099 422.066C845.099 405.52099999999996 831.639 392.061 815.095 392.061ZM815.095 450.07C799.655 450.07 787.092 437.507 787.092 422.066C787.092 406.625 799.655 394.06199999999995 815.095 394.06199999999995C830.5360000000001 394.06199999999995 843.099 406.62499999999994 843.099 422.066C843.099 437.50699999999995 830.5360000000001 450.07 815.095 450.07ZM821.096 428.067C821.096 431.37600000000003 818.405 434.068 815.095 434.068C811.7860000000001 434.068 809.095 431.376 809.095 428.067C809.095 427.514 809.543 427.067 810.095 427.067C810.647 427.067 811.095 427.514 811.095 428.067C811.095 430.273 812.889 432.068 815.095 432.068C817.302 432.068 819.096 430.27299999999997 819.096 428.067C819.096 425.861 817.302 424.06600000000003 815.095 424.06600000000003C814.7610000000001 424.06600000000003 814.4490000000001 423.89900000000006 814.263 423.62100000000004C814.077 423.34200000000004 814.043 422.99000000000007 814.172 422.68100000000004L818.596 412.064H810.095C809.543 412.064 809.095 411.617 809.095 411.064C809.095 410.511 809.543 410.064 810.095 410.064H820.096C820.43 410.064 820.742 410.231 820.928 410.509C821.114 410.788 821.148 411.14 821.019 411.449L816.525 422.238C819.146 422.88 821.096 425.25 821.096 428.067Z " fill="#7f64b5" fill-opacity="1" transform="matrix(1,0,0,1,-785,-392)"></path></svg>