<svg id="SvgjsSvg1069" xmlns="http://www.w3.org/2000/svg" version="1.1" xmlns:xlink="http://www.w3.org/1999/xlink" xmlns:svgjs="http://svgjs.com/svgjs" width="61" height="61" viewBox="0 0 61 61"><title>Layer 11</title><desc>Created with Avocode.</desc><defs id="SvgjsDefs1070"></defs><path id="SvgjsPath1071" d="M552.065 792.124C568.6350000000001 792.124 582.0680000000001 778.69 582.0680000000001 762.119C582.0680000000001 745.548 568.6350000000001 732.114 552.065 732.114C535.494 732.114 522.061 745.548 522.061 762.119C522.061 778.69 535.494 792.124 552.065 792.124Z " fill="#dfceff" fill-opacity="1" transform="matrix(1,0,0,1,-522,-732)"></path><path id="SvgjsPath1072" d="M552.065 732.114C568.609 732.114 582.0680000000001 745.5740000000001 582.0680000000001 762.119C582.0680000000001 778.664 568.6090000000002 792.124 552.065 792.124C535.5210000000001 792.124 522.061 778.664 522.061 762.119C522.061 745.5740000000001 535.5210000000001 732.114 552.065 732.114ZM552.065 790.123C567.5050000000001 790.123 580.0680000000001 777.5600000000001 580.0680000000001 762.119C580.0680000000001 746.678 567.5050000000001 734.115 552.065 734.115C536.624 734.115 524.061 746.678 524.061 762.119C524.061 777.5600000000001 536.624 790.123 552.065 790.123ZM542.063 762.119C542.063 762.4590000000001 542.236 762.7760000000001 542.523 762.96L552.534 769.3960000000001C553 769.6940000000001 553.617 769.5600000000001 553.9159999999999 769.0970000000001C554.2139999999999 768.6320000000001 554.0799999999999 768.0140000000001 553.616 767.7150000000001L544.913 762.1190000000001L556.065 754.9500000000002V771.1200000000001C556.065 771.6740000000001 556.513 772.1210000000001 557.065 772.1210000000001C557.6170000000001 772.1210000000001 558.065 771.6740000000001 558.065 771.1200000000001V753.1180000000002C558.065 752.7520000000002 557.865 752.4160000000002 557.5440000000001 752.2400000000001C557.224 752.0640000000001 556.8330000000001 752.0760000000001 556.5240000000001 752.2760000000001L542.5230000000001 761.278C542.2360000000001 761.462 542.0630000000001 761.779 542.0630000000001 762.119Z " fill="#7f64b5" fill-opacity="1" transform="matrix(1,0,0,1,-522,-732)"></path></svg>