<svg id="SvgjsSvg1026" xmlns="http://www.w3.org/2000/svg" version="1.1" xmlns:xlink="http://www.w3.org/1999/xlink" xmlns:svgjs="http://svgjs.com/svgjs" width="61" height="61" viewBox="0 0 61 61"><title>Layer 12</title><desc>Created with Avocode.</desc><defs id="SvgjsDefs1027"></defs><path id="SvgjsPath1028" d="M684.08 619.097C667.5360000000001 619.097 654.077 632.557 654.077 649.101C654.077 665.646 667.536 679.106 684.08 679.106C700.624 679.106 714.0840000000001 665.646 714.0840000000001 649.101C714.0840000000001 632.557 700.624 619.097 684.08 619.097ZM684.08 677.106C668.639 677.106 656.077 664.543 656.077 649.101C656.077 633.659 668.639 621.097 684.08 621.097C699.522 621.097 712.0830000000001 633.659 712.0830000000001 649.101C712.0830000000001 664.543 699.522 677.106 684.08 677.106ZM681.117 652.387C680.491 652.904 680.0799999999999 653.9359999999999 680.0799999999999 655.102C680.0799999999999 657.309 681.8749999999999 659.103 684.0799999999999 659.103C686.286 659.103 688.0809999999999 657.309 688.0809999999999 655.102C688.0809999999999 653.8199999999999 687.7119999999999 652.855 687.0419999999999 652.386L686.4999999999999 652.0079999999999C686.0469999999999 651.6919999999999 685.9369999999999 651.069 686.2519999999998 650.6159999999999C686.5679999999999 650.1629999999999 687.1929999999999 650.0519999999999 687.6449999999999 650.3669999999998L688.1889999999999 650.7459999999999C689.4099999999999 651.6019999999999 690.0809999999999 653.1479999999999 690.0809999999999 655.1019999999999C690.0809999999999 658.4109999999998 687.3899999999999 661.1029999999998 684.0799999999999 661.1029999999998C680.7719999999999 661.1029999999998 678.079 658.4109999999998 678.079 655.1019999999999C678.079 653.3159999999999 678.747 651.7449999999999 679.9119999999999 650.7919999999999L687.0429999999999 645.8159999999999C687.6979999999999 645.3399999999999 688.0809999999999 644.3459999999999 688.0809999999999 643.0999999999999C688.0809999999999 640.8939999999999 686.286 639.0999999999999 684.0799999999999 639.0999999999999C681.8749999999999 639.0999999999999 680.0799999999999 640.8939999999999 680.0799999999999 643.0999999999999C680.0799999999999 644.2729999999999 680.4949999999999 645.3259999999999 681.1619999999999 645.8489999999999L681.684 646.2109999999999C682.137 646.5279999999999 682.2479999999999 647.151 681.932 647.6039999999999C681.616 648.0559999999999 680.994 648.1669999999999 680.54 647.852L679.973 647.456C678.77 646.517 678.079 644.9010000000001 678.079 643.1C678.079 639.791 680.7719999999999 637.099 684.0799999999999 637.099C687.3899999999999 637.099 690.0809999999999 639.791 690.0809999999999 643.1C690.0809999999999 645.0210000000001 689.4149999999998 646.563 688.2049999999999 647.445Z " fill="#7f64b5" fill-opacity="1" transform="matrix(1,0,0,1,-654,-619)"></path></svg>