<svg id="SvgjsSvg1085" xmlns="http://www.w3.org/2000/svg" version="1.1" xmlns:xlink="http://www.w3.org/1999/xlink" xmlns:svgjs="http://svgjs.com/svgjs" width="61" height="61" viewBox="0 0 61 61"><title>Layer 13</title><desc>Created with Avocode.</desc><defs id="SvgjsDefs1086"></defs><path id="SvgjsPath1087" d="M815.095 565.088C831.666 565.088 845.099 551.655 845.099 535.084C845.099 518.5129999999999 831.666 505.07899999999995 815.095 505.07899999999995C798.525 505.07899999999995 785.092 518.5129999999999 785.092 535.084C785.092 551.655 798.525 565.088 815.095 565.088Z " fill="#dfceff" fill-opacity="1" transform="matrix(1,0,0,1,-785,-505)"></path><path id="SvgjsPath1088" d="M815.095 505.079C798.552 505.079 785.092 518.539 785.092 535.0840000000001C785.092 551.628 798.552 565.0880000000001 815.095 565.0880000000001C831.639 565.0880000000001 845.099 551.628 845.099 535.0840000000001C845.099 518.5390000000001 831.639 505.07900000000006 815.095 505.07900000000006ZM815.095 563.088C799.655 563.088 787.092 550.525 787.092 535.084C787.092 519.6419999999999 799.655 507.07899999999995 815.095 507.07899999999995C830.5360000000001 507.07899999999995 843.099 519.6419999999999 843.099 535.084C843.099 550.525 830.5360000000001 563.088 815.095 563.088ZM821.096 540.084C821.096 543.944 817.956 547.0849999999999 814.095 547.0849999999999C810.235 547.0849999999999 807.094 543.944 807.094 540.084C807.094 538.434 807.4870000000001 536.8789999999999 808.2270000000001 535.587L815.2310000000001 523.578C815.5100000000001 523.102 816.1220000000001 522.941 816.6000000000001 523.218C817.0770000000001 523.496 817.2380000000002 524.108 816.9600000000002 524.586L809.9590000000002 536.588C809.3950000000002 537.5709999999999 809.0950000000001 538.7819999999999 809.0950000000001 540.084C809.0950000000001 542.842 811.3380000000002 545.0849999999999 814.0950000000001 545.0849999999999C816.8530000000002 545.0849999999999 819.0960000000001 542.8419999999999 819.0960000000001 540.084C819.0960000000001 537.632 817.3440000000002 535.558 814.9290000000001 535.1529999999999C814.3850000000001 535.0619999999999 814.017 534.545 814.109 534.0009999999999C814.2 533.4559999999999 814.7130000000001 533.0889999999998 815.2610000000001 533.1799999999998C818.642 533.7459999999999 821.0960000000001 536.6499999999999 821.0960000000001 540.0839999999998Z " fill="#7f64b5" fill-opacity="1" transform="matrix(1,0,0,1,-785,-505)"></path></svg>